<?xml version="1.0" standalone="no"?>
<!DOCTYPE svg PUBLIC "-//W3C//DTD SVG 20010904//EN"
 "http://www.w3.org/TR/2001/REC-SVG-20010904/DTD/svg10.dtd">
<svg version="1.0" xmlns="http://www.w3.org/2000/svg"
 width="1500.000000pt" height="500.000000pt" viewBox="0 0 1500.000000 500.000000"
 preserveAspectRatio="xMidYMid meet">

<g transform="translate(0.000000,500.000000) scale(0.100000,-0.100000)"
fill="#000000" stroke="none">
<path d="M2650 3130 l0 -1340 360 0 360 0 0 671 0 672 105 -7 c336 -22 554
-183 610 -451 8 -38 15 -82 15 -97 0 -23 4 -28 25 -28 l25 0 0 605 0 605 -25
0 c-22 0 -25 -5 -25 -32 0 -18 -7 -64 -15 -103 -35 -163 -137 -293 -287 -365
-100 -48 -239 -80 -350 -80 l-78 0 0 621 0 621 268 -5 c226 -4 279 -8 347 -25
386 -99 623 -365 660 -739 7 -68 9 -73 31 -73 l24 0 0 445 0 445 -1025 0
-1025 0 0 -1340z"/>
<path d="M5546 3789 c-137 -12 -286 -53 -399 -111 -86 -43 -218 -142 -285
-212 -122 -128 -206 -274 -254 -441 -20 -70 -23 -101 -23 -250 1 -131 5 -185
18 -235 58 -210 144 -358 293 -501 366 -349 948 -395 1313 -103 130 104 248
275 311 452 13 34 25 60 28 58 2 -3 19 -38 36 -78 171 -393 602 -653 1035
-622 361 25 628 214 786 557 32 69 89 246 82 253 -2 2 -14 5 -26 6 -20 3 -28
-7 -55 -68 -93 -211 -233 -349 -415 -411 -120 -41 -271 -28 -399 35 -78 37
-195 156 -249 252 -77 137 -134 345 -150 548 l-6 82 622 0 621 0 0 44 c0 72
-28 209 -58 282 -120 296 -413 465 -805 465 -234 0 -428 -57 -610 -179 -234
-159 -392 -393 -443 -660 -16 -85 -18 -240 -4 -325 8 -54 7 -63 -24 -135 -109
-260 -332 -431 -561 -432 -338 -1 -568 266 -640 745 -8 55 -15 121 -15 148 l0
47 620 0 620 0 0 49 c0 65 -24 190 -51 260 -66 179 -204 320 -396 404 -81 36
-200 66 -288 73 -38 2 -86 6 -105 8 -19 2 -75 -1 -124 -5z m133 -63 c39 -21
89 -81 113 -135 41 -97 78 -325 78 -488 l0 -53 -302 0 -301 0 6 103 c15 258
123 497 258 569 41 22 110 23 148 4z m1930 -7 c101 -56 160 -238 177 -544 l7
-125 -303 0 -303 0 6 103 c8 124 45 276 92 375 37 78 116 170 168 196 45 22
112 20 156 -5z"/>
<path d="M11446 3788 c-244 -18 -489 -132 -665 -309 -177 -176 -283 -405 -298
-639 -28 -459 252 -875 697 -1034 127 -46 204 -59 355 -59 157 0 237 14 360
62 257 99 463 342 551 651 22 76 24 94 13 101 -27 17 -36 8 -69 -67 -92 -209
-232 -348 -412 -408 -133 -45 -290 -30 -413 39 -74 41 -179 149 -229 235 -89
152 -135 320 -160 587 l-5 53 622 2 622 3 -3 60 c-13 234 -119 440 -287 560
-124 89 -295 150 -445 161 -41 2 -88 6 -105 7 -16 2 -75 0 -129 -5z m155 -71
c97 -65 153 -237 168 -514 4 -76 5 -141 1 -146 -3 -4 -139 -6 -301 -5 l-294 3
2 70 c8 214 84 437 185 542 70 72 174 94 239 50z"/>
<path d="M8616 3728 c-4 -12 -56 -725 -56 -755 0 -7 7 -13 15 -13 8 0 15 8 15
17 0 34 33 150 61 210 87 194 288 388 482 466 115 46 203 58 404 55 l182 -3
-477 -775 c-263 -426 -528 -856 -589 -955 l-111 -180 896 -3 c492 -1 896 -1
898 0 1 2 15 171 31 376 27 353 28 372 11 372 -12 0 -18 -8 -18 -21 0 -42 -32
-146 -68 -219 -103 -210 -323 -388 -558 -451 -64 -17 -117 -23 -276 -26 -109
-3 -198 -3 -198 0 0 3 255 420 567 928 311 508 575 939 586 957 l19 32 -906 0
c-717 0 -907 -3 -910 -12z"/>
<path d="M5464 1257 c-2 -7 -3 -116 -2 -242 l3 -230 37 -3 37 -3 3 98 3 98 80
5 c90 7 111 15 150 62 24 29 27 38 23 92 -4 51 -9 63 -36 87 -42 37 -89 49
-200 49 -66 0 -94 -4 -98 -13z m236 -77 c25 -25 26 -80 2 -111 -16 -19 -29
-22 -88 -23 l-69 -1 -3 64 c-4 90 -3 91 73 91 52 0 69 -4 85 -20z"/>
<path d="M6500 1038 c-46 -128 -85 -239 -88 -246 -3 -10 6 -12 39 -10 42 3 43
4 58 51 l15 48 104 -3 104 -3 17 -45 c15 -41 20 -45 54 -48 25 -2 37 1 37 10
0 7 -37 117 -83 243 l-82 230 -46 3 -46 3 -83 -233z m170 17 c16 -49 30 -92
30 -97 0 -4 -34 -8 -75 -8 l-74 0 36 105 c20 58 40 102 45 97 4 -4 21 -48 38
-97z"/>
<path d="M7480 1026 l0 -246 40 0 39 0 3 98 c3 96 3 97 29 100 24 3 32 -7 85
-97 l58 -101 43 0 c24 0 43 3 43 8 0 4 -25 48 -55 97 -47 77 -52 91 -38 100
63 41 93 85 93 140 0 40 -35 98 -72 120 -26 15 -57 20 -150 23 l-118 4 0 -246z
m227 159 c29 -21 38 -66 19 -103 -19 -37 -32 -42 -107 -42 l-59 0 0 80 0 80
63 0 c39 0 70 -6 84 -15z"/>
<path d="M8487 1264 c-4 -4 -7 -115 -7 -246 l0 -239 38 3 37 3 0 240 0 240
-30 3 c-17 2 -34 0 -38 -4z"/>
<path d="M9279 1247 c-46 -30 -73 -87 -64 -134 10 -55 51 -88 138 -114 42 -12
85 -30 97 -41 38 -36 20 -91 -36 -107 -47 -13 -90 3 -110 40 -12 23 -21 29
-49 29 -43 0 -49 -11 -31 -53 22 -54 69 -81 146 -85 101 -5 165 40 177 125 10
77 -32 120 -157 157 -72 21 -93 38 -93 76 0 43 25 65 74 65 35 0 46 -6 69 -33
21 -25 34 -32 63 -32 29 0 37 4 37 18 0 30 -36 78 -73 95 -53 25 -146 23 -188
-6z"/>
</g>
</svg>
